<svg width="401" height="78" viewBox="0 0 401 78" fill="none" xmlns="http://www.w3.org/2000/svg">
<path d="M86.229 54V24.9091H98.2461C100.424 24.9091 102.304 25.3021 103.885 26.0881C105.476 26.8646 106.703 27.982 107.564 29.4403C108.426 30.8892 108.857 32.608 108.857 34.5966C108.857 36.6136 108.417 38.3277 107.536 39.7386C106.655 41.1402 105.405 42.2102 103.786 42.9489C102.167 43.678 100.249 44.0426 98.033 44.0426H90.4336V38.5028H96.7262C97.7868 38.5028 98.6722 38.3655 99.3825 38.0909C100.102 37.8068 100.647 37.3807 101.016 36.8125C101.385 36.2348 101.57 35.4962 101.57 34.5966C101.57 33.697 101.385 32.9536 101.016 32.3665C100.647 31.7699 100.102 31.3248 99.3825 31.0312C98.6628 30.7282 97.7773 30.5767 96.7262 30.5767H93.2603V54H86.229ZM102.607 40.7045L109.851 54H102.181L95.0785 40.7045H102.607ZM126.79 44.5824V32.1818H133.722V54H127.103V49.9375H126.875C126.392 51.2727 125.569 52.3333 124.404 53.1193C123.248 53.8958 121.852 54.2841 120.213 54.2841C118.727 54.2841 117.42 53.9432 116.293 53.2614C115.166 52.5795 114.29 51.6278 113.665 50.4062C113.04 49.1752 112.723 47.7358 112.713 46.0881V32.1818H119.659V44.7244C119.669 45.9081 119.981 46.8409 120.597 47.5227C121.212 48.2045 122.051 48.5455 123.111 48.5455C123.802 48.5455 124.423 48.3939 124.972 48.0909C125.531 47.7784 125.971 47.3286 126.293 46.7415C126.624 46.1449 126.79 45.4252 126.79 44.5824ZM145.089 41.5568V54H138.143V32.1818H144.748V36.1875H144.99C145.473 34.8523 146.297 33.8059 147.461 33.0483C148.626 32.2812 150.013 31.8977 151.623 31.8977C153.157 31.8977 154.488 32.2434 155.615 32.9347C156.751 33.6165 157.632 34.5729 158.257 35.804C158.891 37.0256 159.204 38.4555 159.194 40.0938V54H152.248V41.4574C152.258 40.2453 151.95 39.2983 151.325 38.6165C150.709 37.9347 149.852 37.5938 148.754 37.5938C148.025 37.5938 147.381 37.7547 146.822 38.0767C146.273 38.3892 145.847 38.839 145.544 39.4261C145.25 40.0133 145.099 40.7235 145.089 41.5568ZM170.441 41.5568V54H163.495V32.1818H170.1V36.1875H170.341C170.824 34.8523 171.648 33.8059 172.813 33.0483C173.978 32.2812 175.365 31.8977 176.975 31.8977C178.509 31.8977 179.839 32.2434 180.966 32.9347C182.103 33.6165 182.983 34.5729 183.608 35.804C184.243 37.0256 184.555 38.4555 184.546 40.0938V54H177.6V41.4574C177.609 40.2453 177.301 39.2983 176.676 38.6165C176.061 37.9347 175.204 37.5938 174.105 37.5938C173.376 37.5938 172.732 37.7547 172.174 38.0767C171.624 38.3892 171.198 38.839 170.895 39.4261C170.602 40.0133 170.45 40.7235 170.441 41.5568ZM188.846 54V32.1818H195.792V54H188.846ZM192.326 29.6392C191.351 29.6392 190.513 29.3172 189.812 28.6733C189.111 28.0199 188.761 27.2339 188.761 26.3153C188.761 25.4062 189.111 24.6297 189.812 23.9858C190.513 23.3324 191.351 23.0057 192.326 23.0057C193.311 23.0057 194.149 23.3324 194.841 23.9858C195.541 24.6297 195.892 25.4062 195.892 26.3153C195.892 27.2339 195.541 28.0199 194.841 28.6733C194.149 29.3172 193.311 29.6392 192.326 29.6392ZM207.159 41.5568V54H200.213V32.1818H206.819V36.1875H207.06C207.543 34.8523 208.367 33.8059 209.532 33.0483C210.696 32.2812 212.084 31.8977 213.694 31.8977C215.228 31.8977 216.558 32.2434 217.685 32.9347C218.821 33.6165 219.702 34.5729 220.327 35.804C220.962 37.0256 221.274 38.4555 221.265 40.0938V54H214.319V41.4574C214.328 40.2453 214.02 39.2983 213.395 38.6165C212.78 37.9347 211.923 37.5938 210.824 37.5938C210.095 37.5938 209.451 37.7547 208.892 38.0767C208.343 38.3892 207.917 38.839 207.614 39.4261C207.32 40.0133 207.169 40.7235 207.159 41.5568ZM235.735 62.6364C233.662 62.6364 231.886 62.3475 230.409 61.7699C228.931 61.1922 227.771 60.4015 226.929 59.3977C226.086 58.3939 225.579 57.2576 225.409 55.9886L231.985 55.6193C232.109 56.0644 232.336 56.4527 232.667 56.7841C233.008 57.1155 233.449 57.3712 233.988 57.5511C234.538 57.7311 235.181 57.821 235.92 57.821C237.085 57.821 238.046 57.5369 238.804 56.9688C239.571 56.41 239.954 55.4299 239.954 54.0284V50.1932H239.713C239.438 50.8655 239.021 51.4669 238.463 51.9972C237.904 52.5275 237.208 52.9441 236.375 53.2472C235.551 53.5502 234.604 53.7017 233.534 53.7017C231.943 53.7017 230.484 53.3324 229.159 52.5938C227.842 51.8456 226.787 50.6903 225.991 49.1278C225.205 47.5559 224.812 45.5341 224.812 43.0625C224.812 40.5152 225.219 38.4176 226.034 36.7699C226.848 35.1127 227.913 33.8864 229.23 33.0909C230.556 32.2955 231.981 31.8977 233.505 31.8977C234.651 31.8977 235.631 32.0966 236.446 32.4943C237.27 32.8826 237.947 33.3845 238.477 34C239.007 34.6155 239.41 35.2547 239.684 35.9176H239.883V32.1818H246.801V54.0852C246.801 55.9318 246.337 57.4896 245.409 58.7585C244.481 60.0275 243.183 60.9886 241.517 61.642C239.85 62.3049 237.923 62.6364 235.735 62.6364ZM235.949 48.6449C236.791 48.6449 237.511 48.4223 238.108 47.9773C238.704 47.5322 239.163 46.893 239.485 46.0597C239.807 45.2263 239.968 44.2273 239.968 43.0625C239.968 41.8788 239.807 40.8608 239.485 40.0085C239.173 39.1468 238.714 38.4839 238.108 38.0199C237.511 37.5559 236.791 37.3239 235.949 37.3239C235.087 37.3239 234.358 37.5606 233.761 38.0341C233.164 38.5076 232.71 39.1752 232.397 40.0369C232.094 40.8892 231.943 41.8977 231.943 43.0625C231.943 44.2273 232.099 45.2263 232.412 46.0597C232.724 46.893 233.174 47.5322 233.761 47.9773C234.358 48.4223 235.087 48.6449 235.949 48.6449ZM266.115 54H258.559L268.374 24.9091H277.735L287.55 54H279.993L273.161 32.2386H272.934L266.115 54ZM265.107 42.5511H280.902V47.892H265.107V42.5511ZM290.682 54V32.1818H297.429V36.1591H297.657C298.054 34.7197 298.703 33.6496 299.603 32.9489C300.502 32.2386 301.549 31.8835 302.742 31.8835C303.319 31.8835 303.869 31.9545 304.39 32.0966C304.91 32.2386 305.379 32.4328 305.796 32.679L303.75 38.3892C303.447 38.2377 303.121 38.1098 302.77 38.0057C302.429 37.9015 302.051 37.8494 301.634 37.8494C300.914 37.8494 300.247 38.0294 299.631 38.3892C299.025 38.7491 298.542 39.2509 298.182 39.8949C297.822 40.5294 297.638 41.2822 297.628 42.1534V54H290.682ZM321.396 32.1818V37.2955H307.632V32.1818H321.396ZM310.515 26.9545H317.461V47.1392C317.461 47.5653 317.528 47.911 317.66 48.1761C317.802 48.4318 318.006 48.6165 318.271 48.7301C318.536 48.8343 318.853 48.8864 319.223 48.8864C319.488 48.8864 319.767 48.8627 320.061 48.8153C320.364 48.7585 320.591 48.7112 320.743 48.6733L321.794 53.6875C321.462 53.7822 320.993 53.9006 320.387 54.0426C319.791 54.1847 319.076 54.2746 318.243 54.3125C316.614 54.3883 315.217 54.1989 314.052 53.7443C312.897 53.2803 312.011 52.5606 311.396 51.5852C310.79 50.6098 310.496 49.3835 310.515 47.9062V26.9545ZM324.94 54V32.1818H331.886V54H324.94ZM328.42 29.6392C327.445 29.6392 326.607 29.3172 325.906 28.6733C325.205 28.0199 324.855 27.2339 324.855 26.3153C324.855 25.4062 325.205 24.6297 325.906 23.9858C326.607 23.3324 327.445 23.0057 328.42 23.0057C329.405 23.0057 330.243 23.3324 330.934 23.9858C331.635 24.6297 331.985 25.4062 331.985 26.3153C331.985 27.2339 331.635 28.0199 330.934 28.6733C330.243 29.3172 329.405 29.6392 328.42 29.6392ZM355.355 38.8438L348.978 39.0142C348.911 38.5597 348.731 38.1572 348.438 37.8068C348.144 37.447 347.761 37.1676 347.287 36.9688C346.823 36.7604 346.283 36.6562 345.668 36.6562C344.863 36.6562 344.176 36.8172 343.608 37.1392C343.05 37.4612 342.775 37.8968 342.784 38.446C342.775 38.8722 342.945 39.2415 343.296 39.554C343.656 39.8665 344.295 40.1174 345.213 40.3068L349.418 41.1023C351.596 41.5189 353.215 42.2102 354.276 43.1761C355.346 44.142 355.886 45.4205 355.895 47.0114C355.886 48.5076 355.441 49.8097 354.56 50.9176C353.689 52.0256 352.496 52.8873 350.98 53.5028C349.465 54.1089 347.732 54.4119 345.782 54.4119C342.666 54.4119 340.209 53.7727 338.409 52.4943C336.62 51.2064 335.597 49.483 335.341 47.3239L342.202 47.1534C342.354 47.9489 342.747 48.5549 343.381 48.9716C344.016 49.3883 344.825 49.5966 345.81 49.5966C346.7 49.5966 347.425 49.4309 347.983 49.0994C348.542 48.768 348.826 48.3277 348.836 47.7784C348.826 47.286 348.608 46.893 348.182 46.5994C347.756 46.2964 347.088 46.0597 346.179 45.8892L342.373 45.1648C340.185 44.767 338.556 44.0331 337.486 42.9631C336.416 41.8835 335.886 40.5104 335.895 38.8438C335.886 37.3854 336.274 36.1402 337.06 35.108C337.846 34.0663 338.963 33.2708 340.412 32.7216C341.861 32.1723 343.57 31.8977 345.54 31.8977C348.495 31.8977 350.824 32.518 352.529 33.7585C354.233 34.9896 355.176 36.6847 355.355 38.8438ZM371.63 32.1818V37.2955H357.866V32.1818H371.63ZM360.75 26.9545H367.696V47.1392C367.696 47.5653 367.762 47.911 367.895 48.1761C368.037 48.4318 368.24 48.6165 368.505 48.7301C368.77 48.8343 369.088 48.8864 369.457 48.8864C369.722 48.8864 370.002 48.8627 370.295 48.8153C370.598 48.7585 370.825 48.7112 370.977 48.6733L372.028 53.6875C371.697 53.7822 371.228 53.9006 370.622 54.0426C370.025 54.1847 369.31 54.2746 368.477 54.3125C366.848 54.3883 365.451 54.1989 364.287 53.7443C363.131 53.2803 362.246 52.5606 361.63 51.5852C361.024 50.6098 360.731 49.3835 360.75 47.9062V26.9545Z" fill="white"/>
<path d="M77.7908 35.2361C77.7837 35.2411 77.7735 35.2472 77.7664 35.2523C77.7674 35.2472 77.7694 35.2411 77.7694 35.2361H77.7908C77.4231 34.5129 77.0565 33.7898 76.6888 33.0667C76.5873 32.4228 77.6994 32.2958 77.3388 31.5412C77.2535 31.3544 77.09 31.331 76.9123 31.3401C76.6969 31.2609 76.4826 31.1827 76.2683 31.1025C76.1058 30.8486 75.8489 30.9075 75.6102 30.8994C75.4701 30.8963 75.3289 30.8933 75.1887 30.8902C74.8038 30.5733 74.3529 30.4687 73.8674 30.4809C73.7983 30.4657 73.7293 30.4494 73.6592 30.4352C73.6694 30.1549 73.9121 29.7375 73.3068 29.8096C72.9594 29.8512 72.604 29.9558 72.3511 29.5902C72.28 29.5171 72.2079 29.445 72.1368 29.3719C72.1673 29.0722 72.0352 28.731 72.3541 28.5035C72.8548 28.6111 73.3911 28.4761 73.8735 28.7188C74.4189 29.0062 74.9145 29.056 75.4569 28.277C74.2726 28.5065 73.8603 27.1517 72.7898 27.4178C72.4994 27.4178 72.2099 27.4158 71.9194 27.4158C71.825 27.2411 71.6625 27.2045 71.4817 27.2045C71.1201 27.1314 70.7596 27.0593 70.398 26.9861C70.1685 26.6672 69.8303 26.7972 69.5276 26.7739C69.095 26.6967 68.6847 26.4702 68.2236 26.5596C67.2862 26.5626 66.3477 26.5647 65.4103 26.5677C65.1889 26.4936 64.9695 26.4194 64.7481 26.3443C64.3845 26.3453 64.0199 26.3473 63.6563 26.3483C62.2842 26.3483 60.9111 26.3483 59.539 26.3483C59.0383 26.3504 58.5366 26.3514 58.0358 26.3534C57.8845 26.3554 57.7352 26.3554 57.5839 26.3565C57.0801 26.3473 56.5754 26.3392 56.0716 26.3301C55.5323 25.9096 54.9138 26.194 54.3329 26.1351C53.822 26.133 53.3101 26.133 52.7993 26.132C52.1523 26.1249 51.5034 26.1188 50.8564 26.1127C50.2379 25.7004 49.5534 25.9624 48.8983 25.9218C45.8616 25.9126 42.8259 25.9035 39.7891 25.8944C39.781 25.8222 39.78 25.7522 39.783 25.6801C38.9147 25.6801 38.0463 25.6801 37.1769 25.6801C36.8154 25.6801 36.4538 25.6801 36.0923 25.6801C35.5855 25.6801 35.0787 25.6801 34.5719 25.6801C33.9209 25.6801 33.2688 25.6801 32.6188 25.6801C32.4726 25.9522 32.1973 25.872 31.9668 25.9147C31.2345 25.9563 30.4769 25.7146 29.772 26.0954C29.769 26.0975 29.7659 26.0985 29.7629 26.1005C29.7131 26.0883 29.6644 26.0883 29.6146 26.0985C29.2368 25.8375 28.861 25.7938 28.4883 26.1086C28.4883 26.1086 28.4883 26.1066 28.4873 26.1066C27.9104 26.1158 27.3315 26.1249 26.7546 26.133C26.0193 26.1188 25.2819 26.0629 24.569 26.3209C24.0378 26.1594 23.5574 26.3615 23.0699 26.5251C22.1041 26.324 21.1626 26.4347 20.2333 26.7008C20.1622 26.719 20.088 26.7394 20.0149 26.7627C18.3239 26.78 16.6573 27.0004 15.017 27.4127C14.3234 27.3081 13.6602 27.5315 12.999 27.6504C11.2897 27.9591 9.53875 28.0129 7.85789 28.4903C7.35922 28.5045 6.85953 28.5187 6.36086 28.5329C6.36289 28.5329 6.36289 28.534 6.3639 28.534C6.3639 28.534 6.36289 28.534 6.36289 28.5329C5.62555 28.798 4.7582 28.7168 4.16101 29.3576C3.87258 29.6481 3.36476 29.7202 3.29875 30.2311C2.37555 30.2666 3.0164 30.9044 2.91281 31.2538C2.90164 31.2761 2.8925 31.2985 2.88133 31.3198C2.83562 31.8337 3.4582 31.9607 3.51711 32.4136C3.72125 32.6686 2.97578 33.1632 3.7375 33.2759C3.4257 33.5044 3.34851 33.7929 3.51609 34.1443C2.78484 34.2042 2.86406 34.7272 2.89555 35.2239C2.95445 35.3011 3.01336 35.3752 3.0743 35.4524C3.07328 35.883 3.07125 36.3147 3.0682 36.7453C3.0032 36.7504 2.93922 36.7626 2.87625 36.7829C2.40906 37.0957 1.91445 37.374 1.55898 37.8269C1.52445 37.8767 1.50109 37.9254 1.48687 37.9701C1.27664 38.4048 1.14461 38.8598 1.14867 39.3514C1.65851 39.8511 2.31867 40.2045 2.65687 40.8748C2.23539 41.0424 1.80273 41.1978 1.79156 41.7635C1.68187 41.6761 1.51734 41.4933 1.47367 41.5187C1.20047 41.6782 1.40055 41.9554 1.35281 42.1809C1.27664 42.3211 1.20047 42.4622 1.1243 42.6044C0.909999 42.6887 0.696718 42.773 0.483436 42.8573C-0.00203233 43.1671 0.521014 43.8211 0.045702 44.134C0.045702 44.4224 0.045702 44.7129 0.045702 45.0023C0.045702 45.0744 0.045702 45.1476 0.045702 45.2197C0.227499 45.3151 0.258983 45.4878 0.276249 45.6676C0.280311 46.0251 0.283358 46.3815 0.288436 46.739C0.285389 47.0285 0.282343 47.3179 0.279296 47.6054C0.288436 47.9111 0.162499 48.2452 0.474296 48.4849C0.481405 48.6982 0.48953 48.9115 0.498671 49.1247C0.498671 49.3451 0.498671 49.5655 0.498671 49.7859C0.500702 50.1434 0.500702 50.5019 0.501718 50.8604C0.573827 51.1499 0.646952 51.4404 0.719061 51.7298C0.781014 51.9431 0.926249 52.0822 1.1243 52.1726C1.12734 52.2437 1.12836 52.3138 1.13039 52.3839C2.21508 52.3839 3.3018 52.3839 4.3875 52.3839C4.50125 51.8883 5.00297 52.1696 5.25586 51.9492C6.52437 51.8415 7.73094 51.2139 9.05226 51.5064C9.36406 51.5744 9.54179 51.4465 9.38843 51.094C9.52859 51.092 9.66976 51.09 9.80992 51.089C9.83023 51.2901 9.90031 51.3561 10.14 51.3642C11.5101 51.4119 12.8345 51.1235 14.1639 50.8686C14.4513 50.8655 14.7377 50.8604 15.0262 50.8574C15.8234 51.0077 16.6197 50.9844 17.4159 50.8686C17.7064 50.8665 17.9979 51.0808 18.2843 50.8574C19.0084 50.7863 19.7326 50.7152 20.4567 50.6441C20.8904 50.7172 21.323 50.8229 21.7587 50.6502C22.7155 50.7731 23.662 50.7731 24.5802 50.4247C25.5917 50.5517 26.6043 50.573 27.6138 50.4136C27.6859 50.4186 27.758 50.4207 27.8291 50.4186C28.1206 50.6472 28.4152 50.444 28.7087 50.4268C29.5242 50.5954 30.3062 50.3658 31.0974 50.2236C31.6022 50.1972 32.11 50.439 32.6137 50.2125C32.6869 50.2094 32.761 50.2074 32.8341 50.2044C35.8709 50.3719 38.9076 50.2856 41.9453 50.2013C42.8147 50.1891 43.6851 50.4095 44.5565 50.2125C44.848 50.2155 45.1425 50.4298 45.4299 50.1983C46.2952 50.3547 47.1636 50.2551 48.0299 50.2145C48.4687 50.2125 48.9013 50.7 49.3431 50.2247C49.6285 50.4126 49.9119 50.4126 50.1942 50.2216C52.2894 50.4745 54.3908 50.57 56.4992 50.4308C56.7846 50.5933 57.0903 50.6451 57.4183 50.6563C59.3551 50.7122 61.2899 50.7843 63.2247 50.8513C63.3699 50.8533 63.5131 50.8533 63.6563 50.8544C63.8036 50.8594 63.9498 50.8655 64.0951 50.8706C64.3866 51.0808 64.673 50.767 64.9634 50.8635C65.9577 51.1875 66.9744 51.219 68.0032 51.094C69.1651 51.6211 70.3219 51.0737 71.4817 51.0808C72.2038 51.09 72.9249 50.9031 73.6491 51.0768C73.8674 51.0077 74.0848 50.9407 74.3021 50.8716C75.0273 51.1672 75.661 50.964 75.7423 50.2064C75.8001 49.6661 75.4233 49.0801 74.7388 48.9236C74.6647 48.9206 74.5916 48.9186 74.5174 48.9155C74.5174 48.7703 74.5184 48.6251 74.5184 48.4798C75.4396 48.3366 75.6285 47.775 75.3807 46.9665C75.3797 46.8914 75.3776 46.8162 75.3776 46.739C75.5645 46.1815 74.8292 45.5274 75.6112 44.983C75.7819 44.8662 75.3319 44.8581 75.1745 44.788C75.1278 44.4447 75.3086 43.9806 74.7195 43.9207C74.7287 43.8506 74.7276 43.7805 74.7155 43.7104C74.8566 42.9883 74.3549 42.2601 74.7388 41.5421C74.883 41.4669 75.0273 41.3918 75.1715 41.3186C75.9687 41.8437 76.7619 41.2526 77.5592 41.3156C77.7034 41.2435 77.8487 41.1714 77.9939 41.0983C77.9939 40.5183 77.9939 39.9404 77.9939 39.3605C77.9939 38.9269 77.9939 38.4922 77.9939 38.0575C77.9939 37.6959 77.9939 37.3344 77.9939 36.9718C77.9939 36.3929 77.9939 35.815 77.9939 35.2351C77.9299 35.2351 77.8598 35.2351 77.7908 35.2361Z" fill="#EEB7EE"/>
<path d="M67.8488 40.237C66.7977 39.1513 66.8393 37.4359 67.9423 36.4051L73.0427 31.6398C74.1457 30.6089 75.8946 30.6536 76.9458 31.7393C77.998 32.825 77.9563 34.5404 76.8523 35.5723L71.7529 40.3366C70.6489 41.3674 68.902 41.3237 67.8488 40.237Z" fill="#F03C29"/>
<path d="M58.8047 41.7006C59.9077 40.6687 61.6566 40.7134 62.7088 41.7991L71.5274 50.8991C72.5796 51.9858 72.538 53.7012 71.434 54.7321C70.33 55.7639 68.5821 55.7193 67.5299 54.6335L58.7123 45.5325C57.6591 44.4468 57.7017 42.7314 58.8047 41.7006Z" fill="#F03C29"/>
<path d="M54.0698 31.0487C54.0698 31.0487 58.9327 26.7282 64.3297 31.8541C68.3952 36.0496 72.1896 39.9648 72.1896 39.9648C72.1896 39.9648 68.4673 44.5077 63.5822 39.7465C59.2394 35.5448 54.0698 31.0487 54.0698 31.0487Z" fill="#F4741F"/>
<path d="M44.1675 49.8489C44.1675 49.8489 47.4063 53.7499 52.7678 50.3395C56.7277 47.4399 62.6976 41.8621 62.6976 41.8621C62.6976 41.8621 59.2008 37.1364 54.0973 41.3705C44.458 49.3106 44.1675 49.8489 44.1675 49.8489Z" fill="#F4741F"/>
<path d="M72.7716 26.783C72.7147 29.1159 70.7413 30.9583 68.3648 30.8973C65.9882 30.8374 64.1073 28.8976 64.1641 26.5647C64.22 24.2318 66.1934 22.3905 68.5709 22.4504C70.9465 22.5113 72.8274 24.4512 72.7716 26.783Z" fill="#F4741F"/>
<path d="M48.6891 39.8399C47.6369 38.7542 47.6785 37.0378 48.7825 36.007L53.883 31.2427C54.9859 30.2118 56.7338 30.2555 57.786 31.3412C58.8382 32.4269 58.7965 34.1433 57.6926 35.1741L52.5921 39.9395C51.4891 40.9703 49.7412 40.9256 48.6891 39.8399Z" fill="#EDE91C"/>
<path d="M39.6439 41.3025C40.7479 40.2716 42.4958 40.3163 43.548 41.402L52.3667 50.502C53.4189 51.5877 53.3772 53.3041 52.2732 54.335C51.1692 55.3658 49.4224 55.3211 48.3702 54.2354L39.5515 45.1354C38.4993 44.0497 38.5409 42.3344 39.6439 41.3025Z" fill="#EDE91C"/>
<path d="M34.9101 30.6505C34.9101 30.6505 39.7729 26.3707 45.1699 31.4569C49.2355 35.6515 53.0298 39.5677 53.0298 39.5677C53.0298 39.5677 49.3076 44.1106 44.4224 39.3494C40.0796 35.1467 34.9101 30.6505 34.9101 30.6505Z" fill="#EDE91C"/>
<path d="M25.0067 49.4508C25.0067 49.4508 28.2466 53.3518 33.608 49.9423C37.567 47.0417 43.5368 41.4649 43.5368 41.4649C43.5368 41.4649 40.041 36.7382 34.9365 40.9734C25.2982 48.9125 25.0067 49.4508 25.0067 49.4508Z" fill="#EDE91C"/>
<path d="M53.6108 26.6449C53.5549 28.9768 51.5815 30.8191 49.205 30.7592C46.8274 30.6983 44.9475 28.7584 45.0034 26.4266C45.0602 24.0937 47.0336 22.2513 49.4102 22.3123C51.7867 22.3722 53.6676 24.312 53.6108 26.6449Z" fill="#EDE91C"/>
<path d="M29.2114 39.7607C28.1582 38.675 28.2567 36.9047 29.4318 35.8069L34.8593 30.7308C36.0334 29.6319 37.8391 29.6207 38.8923 30.7064C39.9445 31.7921 39.846 33.5613 38.6709 34.6602L33.2445 39.7363C32.0694 40.8352 30.2646 40.8454 29.2114 39.7607Z" fill="#4674C3"/>
<path d="M9.7693 39.5393C8.71711 38.4536 8.75875 36.7382 9.86273 35.7063L14.9622 30.942C16.0662 29.9112 17.8141 29.9548 18.8663 31.0415C19.9184 32.1272 19.8768 33.8426 18.7728 34.8745L13.6723 39.6388C12.5694 40.6697 10.8215 40.625 9.7693 39.5393Z" fill="#4674C3"/>
<path d="M1.14359 40.9897V40.9886C2.24758 39.9578 3.99547 40.0025 5.04765 41.0882L9.90945 46.1064C10.9616 47.1921 10.92 48.9075 9.81703 49.9383V49.9393C8.71305 50.9702 6.96515 50.9255 5.91297 49.8398L1.05117 44.8216C-0.00101725 43.7359 0.0406234 42.0205 1.14359 40.9897Z" fill="#4674C3"/>
<path d="M20.1663 41.2233C21.2702 40.1924 23.0181 40.2361 24.0703 41.3228L32.889 50.4228C33.9412 51.5085 33.8985 53.2249 32.7955 54.2558C31.6916 55.2866 29.9447 55.2419 28.8915 54.1562L20.0738 45.0562C19.0216 43.9705 19.0633 42.2541 20.1663 41.2233Z" fill="#4674C3"/>
<path d="M15.4314 30.5713C15.4314 30.5713 20.5288 26.6083 25.6912 31.3777C29.7568 35.5722 33.5512 39.4885 33.5512 39.4885C33.5512 39.4885 29.8289 44.0314 24.9437 39.2691C20.6009 35.0675 15.4314 30.5713 15.4314 30.5713Z" fill="#4CC5F1"/>
<path d="M5.82055 49.7281C5.82055 49.7281 9.05937 53.6291 14.4209 50.2186C18.3808 47.319 24.4796 41.7412 24.4796 41.7412C24.4796 41.7412 20.8538 37.0155 15.7503 41.2496C6.11101 49.1888 5.82055 49.7281 5.82055 49.7281Z" fill="#4CC5F1"/>
<path d="M34.1331 26.6297C34.0762 28.9626 32.1039 30.805 29.7273 30.744C27.3498 30.6841 25.4688 28.7443 25.5257 26.4114C25.5826 24.0795 27.5549 22.2372 29.9325 22.2971C32.3091 22.357 34.19 24.2979 34.1331 26.6297Z" fill="#4CC5F1"/>
</svg>
